<?xml version="1.0" standalone="no"?>
<!DOCTYPE svg PUBLIC "-//W3C//DTD SVG 20010904//EN"
 "http://www.w3.org/TR/2001/REC-SVG-20010904/DTD/svg10.dtd">
<svg version="1.0" xmlns="http://www.w3.org/2000/svg"
 width="96.000000pt" height="96.000000pt" viewBox="0 0 96.000000 96.000000"
 preserveAspectRatio="xMidYMid meet">
<metadata>
Created by potrace 1.14, written by Peter Selinger 2001-2017
</metadata>
<g transform="translate(0.000000,96.000000) scale(0.100000,-0.100000)"
fill="#000000" stroke="none">
<path d="M531 845 c-1 -24 -17 -45 -80 -105 -43 -41 -83 -84 -89 -95 -19 -38
32 -135 89 -165 12 -7 10 2 -8 37 -35 70 -31 89 37 167 63 74 79 115 62 163
l-10 28 -1 -30z"/>
<path d="M580 720 c-95 -32 -121 -89 -80 -170 23 -45 25 -71 8 -88 -9 -9 -9
-12 0 -12 7 0 24 12 39 26 28 28 28 52 -1 117 l-17 38 33 32 c18 18 47 43 63
55 37 26 26 27 -45 2z"/>
<path d="M303 471 c-23 -4 -49 -13 -58 -21 -16 -13 -15 -15 5 -32 12 -10 35
-18 51 -18 35 0 36 -6 7 -31 -22 -18 -22 -19 -4 -34 10 -8 39 -17 64 -21 55
-8 186 2 213 17 l21 11 -21 15 c-12 8 -30 12 -39 8 -32 -12 -147 -16 -175 -6
-43 17 -24 36 36 36 94 -1 180 15 202 37 l20 20 -34 -7 c-49 -10 -233 -14
-256 -5 -18 7 -16 10 15 24 38 16 25 18 -47 7z"/>
<path d="M660 470 c-13 -8 -13 -10 2 -10 22 0 48 -38 41 -59 -3 -9 -19 -33
-35 -53 -16 -21 -24 -38 -17 -38 19 0 78 40 89 60 15 27 12 76 -4 89 -20 17
-58 22 -76 11z"/>
<path d="M326 283 c-4 -9 0 -23 9 -32 22 -22 188 -22 228 0 l29 16 -25 16
c-20 13 -32 14 -58 7 -44 -13 -126 -13 -134 0 -10 16 -42 12 -49 -7z"/>
<path d="M235 262 c-25 -5 -55 -31 -55 -48 0 -21 47 -47 109 -60 32 -7 109
-11 181 -10 145 4 227 26 247 67 17 34 -1 48 -25 20 -29 -36 -101 -50 -253
-48 -111 2 -140 6 -163 20 -29 19 -27 37 4 37 10 0 21 4 24 9 7 10 -39 18 -69
13z"/>
<path d="M723 154 c-75 -44 -255 -63 -388 -40 l-40 6 45 -16 c32 -12 81 -17
175 -18 121 -1 134 1 187 26 31 14 61 36 67 47 14 26 7 25 -46 -5z"/>
</g>
</svg>
